PathFileType	4	(X/Y/Z)	 s02c0103.trc
DataRate	CameraRate	NumFrames	NumMarkers	Units	OrigDataRate	OrigDataStartFrame	OrigNumFrames
200	200	5	50	mm	200	1751	2000
Frame#	Time	racr			lacr			c7			jug			rlel			rdr			llel			ldr			s2			lic			ric			lasi			rasi			rpsi			lpsi			rgt			lgt			rth1			rth2			rth3			rth4			rlfc			rmfc			rsh1			rsh2			rsh3			rsh4			rlmal			rmmal			rtoe			rmt5			rmt1			lth1			lth2			lth4			lth3			llfc			lmfc			lsh1			lsh2			lsh3			lsh4			llmal			lmmal			lcal			ltoe			lmt5			SBIKE			LBIKE			RBIKE			
		X1	Y1	Z1	X2	Y2	Z2	X3	Y3	Z3	X4	Y4	Z4	X5	Y5	Z5	X6	Y6	Z6	X7	Y7	Z7	X8	Y8	Z8	X9	Y9	Z9	X10	Y10	Z10	X11	Y11	Z11	X12	Y12	Z12	X13	Y13	Z13	X14	Y14	Z14	X15	Y15	Z15	X16	Y16	Z16	X17	Y17	Z17	X18	Y18	Z18	X19	Y19	Z19	X20	Y20	Z20	X21	Y21	Z21	X22	Y22	Z22	X23	Y23	Z23	X24	Y24	Z24	X25	Y25	Z25	X26	Y26	Z26	X27	Y27	Z27	X28	Y28	Z28	X29	Y29	Z29	X30	Y30	Z30	X31	Y31	Z31	X32	Y32	Z32	X33	Y33	Z33	X34	Y34	Z34	X35	Y35	Z35	X36	Y36	Z36	X37	Y37	Z37	X38	Y38	Z38	X39	Y39	Z39	X40	Y40	Z40	X41	Y41	Z41	X42	Y42	Z42	X43	Y43	Z43	X44	Y44	Z44	X45	Y45	Z45	X46	Y46	Z46	X47	Y47	Z47	X48	Y48	Z48	X49	Y49	Z49	X50	Y50	Z50	
1751	8.7550	503.385270	1291.034794	-144.881949	523.056587	1300.560270	-469.681484	499.814090	1327.869305	-308.682051	450.097043	1196.408029	-306.244271	558.156018	1023.064355	-79.456857	709.470333	853.450288	-123.026696	553.287097	1029.536498	-571.602381	710.480593	859.054369	-505.122414	-3.159215	1115.465669	-338.094026	134.381422	1103.684604	-475.747455	115.200735	1131.561527	-187.449063	176.647524	1071.827677	-442.951187	163.835657	1115.317822	-225.383074	5.847636	1147.359206	-301.218627	23.265696	1149.689141	-389.218184	99.951947	1070.973704	-141.141714	83.224511	1002.403826	-496.012849	186.084867	1064.872511	-140.416555	273.863982	1068.443870	-144.382662	350.160037	1039.742455	-117.053846	281.186955	1090.737970	-174.381377	485.114386	970.996851	-143.104428	480.122788	945.710161	-255.679862	457.320243	864.319749	-128.259119	424.069728	783.195546	-143.953847	359.379684	726.560385	-138.911102	436.936607	776.755684	-181.292117	277.474031	631.532455	-142.249990	293.785640	647.967192	-222.492957	431.598187	468.581431	-189.883738	332.372231	513.056830	-129.069264	358.929535	509.798351	-235.415550	176.537384	896.261222	-517.014128	235.791518	832.334597	-516.046971	266.066797	848.325319	-502.413569	253.711298	745.040179	-513.881695	300.311292	658.015512	-488.930877	306.489707	628.799740	-388.602468	277.872628	557.804070	-510.431883	284.853522	472.859179	-496.553662	244.097845	391.456023	-495.470710	305.376950	471.887819	-460.939513	215.858244	291.731597	-480.446121	234.447269	285.288819	-407.750467	143.298527	273.061365	-438.043388	392.586944	126.959112	-439.537637	288.551655	155.572566	-501.079519	-126.910345	871.986879	-308.569421	37.108017	86.525817	-514.181353	33.552495	83.157149	-114.572639	
1752	8.7600	502.379483	1292.351124	-144.376290	522.249463	1302.663042	-468.294642	498.632513	1329.212825	-307.635717	450.430752	1197.186131	-305.410609	557.577882	1024.003287	-79.318663	709.274357	854.128962	-122.889703	552.594243	1031.661419	-570.845335	709.474048	860.797513	-505.980731	-4.420608	1115.574717	-337.490172	132.893453	1104.493702	-475.686285	114.684197	1132.565443	-187.055571	175.359803	1072.591708	-443.079324	162.970469	1116.504242	-225.140577	4.022090	1148.268767	-300.200645	21.407707	1150.394762	-387.920245	99.325946	1071.962632	-140.628380	81.944286	1002.905418	-495.745175	185.523216	1065.506846	-140.194576	273.299821	1069.026159	-144.393067	349.648025	1040.024418	-117.525349	280.463979	1091.645876	-174.211701	484.680752	972.163773	-144.700950	479.129436	946.925266	-257.199971	459.259084	865.484958	-129.062315	427.439956	783.458818	-144.662308	363.997281	725.596117	-139.067708	440.267212	777.190660	-182.029338	283.471842	628.260598	-141.860601	298.893884	645.062968	-222.113226	441.997990	470.802549	-190.023672	341.437484	512.001488	-128.912855	367.883602	509.804882	-235.295656	175.152614	897.048267	-516.747653	234.579272	833.195310	-516.265353	264.856631	849.255588	-502.787341	252.617410	745.887930	-514.271778	299.601623	658.871608	-489.376755	306.421039	629.719572	-388.852491	276.006992	559.124783	-510.534399	280.422408	474.021881	-495.841855	238.681142	393.576454	-495.478412	301.656246	472.683458	-460.976120	208.093196	294.506888	-480.388587	227.033036	287.873007	-407.276817	135.246216	277.027534	-437.925788	382.007682	126.829578	-439.535265	278.396563	157.057429	-501.041664	-127.087048	871.913001	-308.597325	37.075067	86.559316	-514.187845	33.535918	83.161596	-114.567974	
1753	8.7650	501.516087	1292.967684	-143.836228	521.443841	1303.851633	-467.144734	497.462529	1329.442616	-306.534969	451.438169	1196.643925	-304.234970	557.448339	1024.421832	-79.141240	709.022325	854.706546	-122.931432	551.931056	1033.019881	-570.101273	708.743260	861.185484	-506.002737	-5.855839	1115.869128	-336.650756	131.301234	1105.434213	-475.584830	114.194080	1133.306435	-186.625324	173.967172	1073.247074	-443.148507	161.722312	1116.813309	-225.646080	2.294638	1149.551583	-299.166827	19.633491	1151.255791	-386.693219	98.639847	1072.915319	-140.348558	80.717246	1003.435692	-495.473671	185.019949	1065.732618	-140.013512	272.794708	1068.878755	-144.459715	349.054230	1039.344585	-118.090612	279.942952	1091.670978	-174.141747	482.260151	972.603717	-144.912195	478.013971	946.817873	-258.556564	460.838305	865.151047	-129.808979	430.409461	782.485727	-145.363586	368.162550	723.514229	-139.216709	443.180917	776.454201	-182.686680	289.032193	624.100264	-141.367377	303.561080	641.327552	-221.784090	452.107699	472.606164	-190.139367	350.229377	510.322758	-128.718183	376.563331	509.289032	-235.212512	174.086109	897.854478	-516.440093	233.722034	834.234359	-516.351932	264.005868	850.441441	-502.996218	252.106785	746.973875	-514.404726	299.515481	660.206564	-489.637232	306.780135	631.025832	-389.059095	274.651800	560.805558	-510.575978	277.043833	475.642518	-495.771809	233.531523	396.151820	-495.401061	298.288130	473.949594	-460.965819	200.490208	297.965461	-480.303089	219.911458	290.928273	-406.702793	127.326834	281.484890	-437.744403	371.435574	127.401317	-439.596730	268.319238	159.232291	-500.990243	-127.278118	871.874735	-308.664749	37.032203	86.522388	-514.176758	33.487002	83.165599	-114.577007	
1754	8.7700	501.060994	1293.166890	-143.320276	521.047251	1304.323204	-466.086685	496.832535	1329.263614	-305.656327	452.361541	1195.940494	-303.223901	557.181337	1024.462381	-78.521138	708.589545	855.221460	-122.894642	551.293740	1033.634008	-569.672844	708.100420	861.434297	-506.262072	-6.604037	1116.004273	-336.149600	129.802730	1106.285872	-475.398176	113.768083	1134.037260	-186.233479	172.590846	1073.842325	-443.202755	160.934021	1117.740765	-225.814741	0.930862	1150.942997	-298.198856	17.932402	1152.165687	-385.475936	97.809378	1073.589587	-140.207730	79.555190	1003.885031	-495.318530	184.598597	1065.477267	-139.799444	272.290026	1068.027116	-144.560156	348.398092	1037.893930	-118.589973	279.538895	1091.044884	-174.101125	481.699076	971.036998	-146.150259	476.940299	945.490249	-259.736995	462.156424	863.457147	-130.416193	433.073862	780.097666	-145.892509	371.921410	720.050341	-139.266992	445.685403	774.290095	-183.302761	294.313395	618.784405	-141.085089	307.358501	636.738794	-221.905421	461.961923	474.092090	-190.263849	358.848769	507.919108	-128.442289	385.734728	508.141723	-235.840132	173.310952	898.824899	-516.045772	233.281894	835.539212	-516.262182	263.431218	851.866647	-502.992622	252.182803	748.359787	-514.342961	299.897461	661.848456	-489.803972	307.614947	632.726114	-389.071574	273.891573	562.838115	-510.587876	273.846819	477.545461	-495.054014	228.719301	399.302067	-495.404385	295.058193	475.430078	-460.375908	192.958752	301.905716	-480.138705	208.776003	296.328845	-404.319197	119.511219	286.488076	-437.530666	360.998906	128.714883	-439.651082	258.344545	162.017549	-500.986019	-127.491877	871.818248	-308.756918	37.007074	86.514111	-514.171487	33.474974	83.100493	-114.516767	
1755	8.7750	500.821551	1292.916291	-142.809727	520.973667	1304.023363	-465.253935	496.476356	1328.474538	-304.924345	453.578442	1194.643565	-302.222920	556.570284	1024.116293	-77.485436	707.979006	855.607089	-122.762868	550.481712	1033.383230	-569.701530	707.530949	861.557722	-506.684587	-7.415131	1116.412785	-335.475287	128.449536	1106.670323	-475.223193	113.428592	1134.516481	-185.844628	171.255319	1074.357075	-443.337370	160.405448	1118.305440	-225.691143	2.488303	1150.859723	-298.531948	16.440551	1153.087738	-384.419442	97.163928	1073.809399	-140.038438	78.398548	1004.337128	-495.243941	184.288813	1064.817070	-139.542038	271.948161	1066.571764	-144.578357	347.799805	1035.632254	-118.873193	279.389548	1089.750978	-174.066017	480.906288	968.293771	-147.241786	475.900178	942.838638	-260.597520	462.993388	859.990130	-131.508820	435.345193	776.432371	-146.365674	375.326232	715.276455	-139.357862	447.747366	770.945234	-183.927148	299.276943	612.517498	-140.925229	311.233955	630.784510	-221.700407	471.566366	475.102888	-190.410461	367.091994	504.624424	-128.130743	393.449473	506.340384	-235.573778	172.808618	899.931028	-515.646415	233.232605	837.006832	-516.020894	263.308911	853.601732	-503.005619	252.785968	750.021214	-514.119374	301.013319	663.711152	-489.846341	308.803748	634.544051	-389.011683	273.566671	565.185335	-510.540519	271.175608	479.925480	-494.688815	224.167731	402.907809	-495.316936	292.224936	477.302013	-460.046638	185.686640	306.511700	-479.957446	201.332425	300.663349	-403.866963	111.794448	292.054389	-437.354149	350.652125	130.714521	-439.731061	248.483691	165.532180	-500.902879	-127.700710	871.736738	-308.847753	36.974964	86.464928	-514.188986	33.425851	83.102481	-114.525922	
